<svg xmlns="http://www.w3.org/2000/svg" width="77.751" height="78.358" viewBox="0 0 77.751 78.358">
  <g id="Grupo_1" data-name="Grupo 1" transform="translate(-0.125 -0.169)">
    <g id="g1" transform="translate(1.561 52.998)">
      <rect id="rect25" width="7.198" height="2.287" transform="translate(65.865 -18.433)" fill="#fff"/>
      <path id="path1" d="M4.632-51.219C2.667-38.988,2.691-27.932,8.47-17.82c2.355,4.178-6.94-1.161-8.67.569-.579.579,6.145,6.051,7.552,7.462.107.107-.863,2.836-1.3,4.334C5.933-5.04,4.493.088,4.632.088c.851,0,7.427-.816,7.959-.284C15.763,2.976,25.835,4.921,30.5,4.921" transform="translate(0 -0.03)" fill="none" stroke="#000" stroke-linecap="round" stroke-linejoin="round" stroke-width="2.372"/>
      <path id="path2-7" d="M21.966,8.7c.028,2.379,3.765,3.907,6.111,6.254,1.71,1.71-5.831,4.26-4.122,5.969.734.734,3.758-2.07,4.974-.853,1.065,1.065-.995,2.9-.995,4.406a26.21,26.21,0,0,1-.466,3.187" transform="translate(-1.558 -4.236)" fill="none" stroke="#000" stroke-linecap="round" stroke-linejoin="round" stroke-width="2.372"/>
      <path id="path3" d="M22.708-51.129c2.634,3.185,6.486,11.557,10.538,11.107.569-.063,1.795-1.226,2.132-1.563,1.214-1.214.626-3.013-.142-4.548-1.269-2.537-3.367-6.855.569-5.117,3.416,1.509,8.388,2.561,11.228,5.4.417.417,4.371,4.548,4.548,4.548.391,0,1.133-3.541,1.279-3.98a11.284,11.284,0,0,1,4.122-5.685" transform="translate(-1.61 0)" fill="none" stroke="#000" stroke-linecap="round" stroke-linejoin="round" stroke-width="2.372"/>
      <path id="path4" d="M31.714-39.583c-11.5,5.841,1.952,3.7,7.391,3.7" transform="translate(-1.926 -0.847)" fill="none" stroke="#000" stroke-linecap="round" stroke-linejoin="round" stroke-width="2.372"/>
      <path id="path6" d="M56.053,6.865c3.162,6.607,6.91,13.3,7.817,21.461" transform="translate(-3.951 -4.107)" fill="none" stroke="#000" stroke-linecap="round" stroke-linejoin="round" stroke-width="2.372"/>
      <path id="path9" d="M17.752-21.147c-1.384,2.318-2.9,9.2-.3,12.314" transform="translate(-1.142 -2.141)" fill="none" stroke="#000" stroke-linecap="round" stroke-linejoin="round" stroke-width="2.372"/>
      <path id="path10-9" d="M62.783-22.373c1.307,3.527,3.613,8.921,1.5,12.615" transform="translate(-4.423 -2.055)" fill="none" stroke="#000" stroke-linecap="round" stroke-linejoin="round" stroke-width="2.372"/>
      <path id="path12-3" d="M35-7.414a36.241,36.241,0,0,0,4.906-.1" transform="translate(-2.473 -3.098)" fill="none" stroke="#000" stroke-linecap="round" stroke-linejoin="round" stroke-width="2.372"/>
      <path id="path13" d="M11.422-4.147c4.755-2.882,2.22,1.019,3.3,2.1.226.226,4.339-2.111,4.706-2.2" transform="translate(-0.818 -3.261)" fill="none" stroke="#ff0200" stroke-linecap="round" stroke-linejoin="round" stroke-width="2.372"/>
      <path id="path14-8" d="M59.217-4.016a22.614,22.614,0,0,1,2.3-2.1c.465-.366.314,1.141.5,1.7.09.269.275,2.028.3,2,.942-.942,2-2.282,3.1-3.2" transform="translate(-4.161 -3.192)" fill="none" stroke="#ff0200" stroke-linecap="round" stroke-linejoin="round" stroke-width="2.372"/>
      <path id="path15" d="M24.5-20.609c-.875,3.135-1.073,8.639,3.18,10.586.586.268,1.267-.26,1.5-.476A10.761,10.761,0,0,0,31.9-21.138" transform="translate(-1.701 -2.141)" stroke="#000" stroke-linecap="round" stroke-linejoin="round" stroke-width="2.29"/>
      <path id="path16-0" d="M49.073-22.3c-.325,3.577-1.443,9.217,2.429,11,5.119,2.351,4.922-9.069,4.684-11.474" transform="translate(-3.433 -2.026)" stroke="#000" stroke-linecap="round" stroke-linejoin="round" stroke-width="2.295"/>
      <path id="path17" d="M32.347.166C34.47,1.69,37.224.686,39-1.092,39.21-1.3,44.1-.06,44.2-.037c1.672.418,3.164-1.243,4.058-1.988" transform="translate(-2.287 -3.483)" fill="none" stroke="#000" stroke-linecap="round" stroke-linejoin="round" stroke-width="2.372"/>
      <path id="path18-2" d="M14.616-21.86c5.447-.017,10.931.246,16.325.246" transform="translate(-1.042 -2.091)" fill="none" stroke="#000" stroke-linecap="round" stroke-linejoin="round" stroke-width="2.372"/>
      <path id="path19" d="M64.909-23.781c-5.042,1.084-10.451.924-15.709.924" transform="translate(-3.47 -1.956)" fill="none" stroke="#000" stroke-linecap="round" stroke-linejoin="round" stroke-width="2.372"/>
      <path id="path21" d="M39.856,25.617c-7.192-.061-13.088-.121-13.1-.133a5.276,5.276,0,0,1,.171-.766c.108-.409.3-1.122.419-1.584a12.514,12.514,0,0,0,.3-1.572,4.188,4.188,0,0,1,.609-1.844,4.817,4.817,0,0,0,.712-2.526,2.29,2.29,0,0,0-1.185-1.658,3.3,3.3,0,0,0-1.947-.112,1.784,1.784,0,0,1-.429.1,4.029,4.029,0,0,1,.564-.464,6.66,6.66,0,0,0,1.883-1.963,2.213,2.213,0,0,0,.075-1.658,11.505,11.505,0,0,0-2.978-2.706c-.9-.676-1.9-1.48-2.227-1.787-.551-.524-.95-1.031-.872-1.109.019-.019.714.1,1.545.266a42.563,42.563,0,0,0,6.934.835c.6,0,.739-.024.96-.172a1.155,1.155,0,0,0,.044-1.886c-.2-.143-.378-.173-1.332-.224a44.542,44.542,0,0,1-8.508-1.322C17.8,2.39,15.074,1.231,13.754.032c-.636-.578-.828-.624-2.583-.621-.853,0-2.289.066-3.195.144s-1.663.123-1.685.1C6.229-.406,7.322-4.318,7.922-6.185c.857-2.663.893-2.962.426-3.494-.13-.148-.952-.9-1.825-1.673-2.063-1.822-3.016-2.683-3.876-3.5-.649-.616-.682-.662-.454-.62.374.067,1.306.3,2.855.709a10.375,10.375,0,0,0,3.317.58,1.823,1.823,0,0,0,1.482-.724c.213-.3.227-.368.227-1.016,0-.779.084-.563-1.115-2.847A39.706,39.706,0,0,1,4.746-37.527V-38.65l10.677,0,10.677,0-.227.165a5.425,5.425,0,0,0-1.37,1.455,1.751,1.751,0,0,0-.033,1.465,2.516,2.516,0,0,0,2.084,1.145,42.8,42.8,0,0,0,5.971-.039c1.081-.067,2.686-.15,3.568-.185,1.794-.071,2-.13,2.245-.641a1.132,1.132,0,0,0-.514-1.56c-.309-.137-.426-.141-1.959-.073-.9.04-2.525.126-3.619.192s-2.668.11-3.5.1l-1.511-.022.6-.377c.332-.207.956-.57,1.388-.806l.784-.429.312.114a4.493,4.493,0,0,0,.962.154,2.439,2.439,0,0,0,1.731-.433l.34-.226H74.27l.056,1.483c.031.816.038,2.644.016,4.063a22.453,22.453,0,0,1-.672,6.272c-.152.565-.19.625-.81,1.279-.358.377-1.706,1.661-2.995,2.853C66.69-19.766,66-18.981,65.819-18.12a1.057,1.057,0,0,0,.04.761c.247.648.661.784,2.834.934.686.047,1.655.149,2.154.225s1.07.161,1.27.188l.363.049-.2.354c-.112.195-.47.728-.8,1.185-.562.789-.98,1.319-3.4,4.319C66.7-8.391,66.652-8.323,66.652-7.871a1.616,1.616,0,0,0,.124.613c.068.133.658.939,1.311,1.791a37.166,37.166,0,0,1,3.157,4.428c-.07.07-2.133.263-4.366.409a18.478,18.478,0,0,0-5.757.876A72.241,72.241,0,0,1,50.552,2.58a5.437,5.437,0,0,0-1.117.244,1.154,1.154,0,0,0,.084,2.017c.263.129.351.133,1.019.052.4-.049.785-.1.851-.123a85.7,85.7,0,0,1,4.265,8.774,43.022,43.022,0,0,1,3.215,11.111,7.44,7.44,0,0,0,.15.888l.067.208-3.076-.012c-1.692-.007-8.961-.061-16.153-.122ZM33.99-.707a8.7,8.7,0,0,0,3.183-1.659l.189-.149,1.035.221c.569.122,1.59.356,2.268.52a5.327,5.327,0,0,0,2.49.32,7.273,7.273,0,0,0,3.555-2.135,1.629,1.629,0,0,0,.509-.7,1.131,1.131,0,0,0-1.374-1.395,2.828,2.828,0,0,0-.834.552,8.953,8.953,0,0,1-1.593,1.2c-.595.3-.722.3-2.194-.053-3.284-.792-4.456-.95-4.891-.662-.109.073-.43.327-.711.564a5.006,5.006,0,0,1-3.085,1.268,2.819,2.819,0,0,1-1.572-.468,1.264,1.264,0,0,0-1.338-.082,1.139,1.139,0,0,0,0,1.935,6.016,6.016,0,0,0,1.649.761A7.063,7.063,0,0,0,33.99-.707ZM15-3.465c.277-.1,1.42-.657,2.539-1.228,2.273-1.16,2.356-1.227,2.356-1.922a1.055,1.055,0,0,0-.565-.957c-.453-.311-.768-.223-2.639.733-.905.463-1.662.842-1.682.842a3.549,3.549,0,0,1-.073-.706,1.959,1.959,0,0,0-.763-1.69c-.282-.2-.358-.211-1.029-.209a2.466,2.466,0,0,0-1.3.247A6.4,6.4,0,0,0,9.829-7.131,1.2,1.2,0,0,0,10.191-5.5c.428.221.842.147,1.681-.3l.772-.412,0,.734a4.354,4.354,0,0,0,.105,1.036A2.264,2.264,0,0,0,13.5-3.392,2.04,2.04,0,0,0,15-3.465ZM58.934-3.8A8.953,8.953,0,0,0,60.22-5.043c.549-.6,1.246-1.328,1.55-1.612a4.44,4.44,0,0,0,.676-.756,1.114,1.114,0,0,0-1.01-1.608c-.456,0-.732.181-1.639,1.078-.778.769-.725.776-.813-.114-.1-.982-.544-1.493-1.3-1.493-.484,0-.688.1-1.322.62a20.953,20.953,0,0,0-2.3,2.267,1.557,1.557,0,0,0-.106.58.787.787,0,0,0,.2.611,1.173,1.173,0,0,0,1.358.379,4.365,4.365,0,0,0,.8-.655,4.114,4.114,0,0,1,.621-.546c.015.017.082.449.15.958a5.767,5.767,0,0,0,.241,1.156,1.222,1.222,0,0,0,1.615.378ZM16.84-8.434a1.018,1.018,0,0,0,.546-.958,1.334,1.334,0,0,0-.355-.917,7.252,7.252,0,0,1-1-4.532,15.237,15.237,0,0,1,1.345-5.913,3.257,3.257,0,0,0,.312-.856l.019-.272,2.116.053c1.164.029,2.129.064,2.144.077a2.858,2.858,0,0,1-.092.576,14.623,14.623,0,0,0-.277,4.093,7.915,7.915,0,0,0,3.255,6.242,2.974,2.974,0,0,0,2.016.734,3.057,3.057,0,0,0,2.065-1.175,11,11,0,0,0,3.022-6.354,16.138,16.138,0,0,0-.037-3.594c-.222-1.375-.309-1.617-.745-2.066a3.552,3.552,0,0,0-.58-.5,41.718,41.718,0,0,0-4.951-.183c-2.619-.046-5.068-.1-5.442-.121s-2.06-.043-3.746-.051c-3.363-.015-3.307-.022-3.655.445a1.329,1.329,0,0,0-.083,1.18c.234.493.54.613,1.645.643a7.1,7.1,0,0,1,.964.06,2.351,2.351,0,0,1-.144.316,18.477,18.477,0,0,0-1.224,4.284,19.105,19.105,0,0,0-.111,4.713c.269,1.824,1.043,3.527,1.852,4.072a1.038,1.038,0,0,0,1.14,0Zm20.408-.12c.924-.066,1.122-.162,1.365-.664a1.13,1.13,0,0,0-.513-1.506c-.246-.117-.4-.125-1.34-.071-.584.034-1.833.069-2.777.078-1.629.016-1.727.026-1.948.183a1.078,1.078,0,0,0-.456.962,1.066,1.066,0,0,0,.9,1.092c.3.065,3.528.015,4.767-.074ZM60.611-9.947a2.41,2.41,0,0,0,.832-1.29,8.021,8.021,0,0,0,.542-3.3,21.316,21.316,0,0,0-1.716-7.581,12.634,12.634,0,0,1-.41-1.214c.015-.011.47-.1,1.011-.192a7.745,7.745,0,0,0,1.246-.3,1.14,1.14,0,0,0,.058-1.982c-.3-.187-.588-.173-2.174.105a52.037,52.037,0,0,1-9.789.628c-4.3.04-4.552.05-4.852.191-.516.242-.586.477-.822,2.747-.44,4.239-.23,6.534.759,8.322a5.992,5.992,0,0,0,2.232,2.129q2.57,1.278,4.293-.445c1.431-1.431,2.161-4.261,2.261-8.763l.043-1.931,1.58-.094c.869-.052,1.621-.11,1.671-.129a5.793,5.793,0,0,1,.682,1.572c1.839,5.007,2.112,7.619,1.035,9.9-.271.573-.28.758-.056,1.194a1.1,1.1,0,0,0,1.574.436Z" transform="translate(-0.161 -0.912)" fill="#fff"/>
      <path id="path22-4" d="M14.931-40.31c-5.425-.051-9.878-.1-9.894-.1-.052-.015.068-2.023.226-3.788.154-1.722.371-3.506.681-5.6l.17-1.15,6.959.055,6.959.055.179.164a48.892,48.892,0,0,1,3,4.095,35.651,35.651,0,0,0,4.263,5.513l.533.524-.281.173c-.266.164-.349.172-1.6.163-.728-.005-5.762-.052-11.187-.1Z" transform="translate(-0.369 -0.049)" fill="#fff"/>
      <path id="path23" d="M66.55-39.868c-16.435-.149-25.448-.221-27.656-.221h-2.41l.536-.564a3.272,3.272,0,0,0,1.071-2.615,7.57,7.57,0,0,0-.988-3.416c-.341-.717-.72-1.525-.843-1.8a10.8,10.8,0,0,1-.638-1.865,5.811,5.811,0,0,1,.852.318c.453.19,1.793.7,2.978,1.131a27.84,27.84,0,0,1,6.2,2.762,22.3,22.3,0,0,1,3.335,3.094c1.44,1.448,2.723,2.688,2.852,2.755a1.31,1.31,0,0,0,1.21.048c.592-.3.9-1,1.523-3.49a17.538,17.538,0,0,1,.577-1.878,10.369,10.369,0,0,1,3.176-4.183,2.561,2.561,0,0,0,.593-.588l.05-.159,3.527.045c1.94.025,5.857.065,8.7.091l5.178.046,0,2.769c0,2.517.137,6.943.232,7.55l.038.246L74.774-39.8c-1.031-.007-4.731-.038-8.224-.07Z" transform="translate(-2.516 -0.079)" fill="#fff"/>
      <path id="path24-8" d="M11.5-38.026c-3.57-.033-6.506-.075-6.524-.093a10.439,10.439,0,0,1,.02-1.156L5.045-40.4l2.163.018,11.269.1,9.106.078.207.2.207.2-.722.44a11.438,11.438,0,0,0-1.8,1.267c-.143.159-.163.16-3.817.148-2.02-.007-6.594-.039-10.164-.073Z" transform="translate(-0.365 -0.79)" fill="#fff"/>
      <path id="path25" d="M64.04-37.587c-24.993-.22-29.859-.261-31.369-.264l-1.587,0,.489-.252c.477-.245.5-.249.794-.14a4.063,4.063,0,0,0,1.988.065,6.864,6.864,0,0,0,2.027-1.42l.559-.531,7.026.056,7.026.056.174.186a1.368,1.368,0,0,0,1.557.331,1.384,1.384,0,0,0,.417-.313c.107-.153.166-.156,2.669-.152,4.172.007,20.395.163,20.429.2.017.017.048.542.068,1.166l.036,1.135-.709-.011c-.39-.006-5.608-.054-11.594-.107Z" transform="translate(-2.198 -0.808)" fill="#fff"/>
      <path id="path5" d="M78.822-50.834c-.509,6.684-.272,20.459-1.554,23.822-.532,1.4-6.747,7.14-6.747,8.366,0,.2,2.84.243,3.837.242a22.165,22.165,0,0,1,3.98.326c-.046.078-.761,1.168-.807,1.26-1.3,2.113-4.143,5.435-6.157,8.121-.081.109,5.6,6.91,4.974,7.533-.771.771-8.312.834-9.522,1.137A76.329,76.329,0,0,1,53.607,2.958" transform="translate(-3.779 -0.057)" fill="none" stroke="#000" stroke-linecap="round" stroke-linejoin="round" stroke-width="2.372"/>
    </g>
  </g>
</svg>
