<svg xmlns="http://www.w3.org/2000/svg" xmlns:xlink="http://www.w3.org/1999/xlink" width="78.98" height="78.98" viewBox="0 0 78.98 78.98">
  <defs>
    <clipPath id="clip-SPRK_default_preset_name_custom_1">
      <rect width="78.98" height="78.98"/>
    </clipPath>
  </defs>
  <g id="SPRK_default_preset_name_custom_1" data-name="SPRK_default_preset_name_custom – 1" clip-path="url(#clip-SPRK_default_preset_name_custom_1)">
    <g id="brazil">
      <circle id="Elipse_1" data-name="Elipse 1" cx="39.49" cy="39.49" r="39.49" fill="#6da544"/>
      <path id="Caminho_1" data-name="Caminho 1" d="M43.417,25.044,75.7,48.834,43.417,72.625,11.13,48.834Z" transform="translate(-4.333 -9.75)" fill="#ffda44"/>
      <circle id="Elipse_2" data-name="Elipse 2" cx="13.595" cy="13.595" r="13.595" transform="translate(25.49 25.49)" fill="#f0f0f0"/>
      <path id="Caminho_2" data-name="Caminho 2" d="M48.539,54.485a22.854,22.854,0,0,0-6.793,1.027,13.591,13.591,0,0,0,24.723,7.621,22.91,22.91,0,0,0-17.93-8.647Zm20.139,3.454a13.6,13.6,0,0,0-25.835-7.97,28.022,28.022,0,0,1,25.835,7.97Z" transform="translate(-16.252 -16.25)" fill="#0052b4"/>
    </g>
  </g>
</svg>
